<?xml version="1.0" standalone="no"?>
<!DOCTYPE svg PUBLIC "-//W3C//DTD SVG 20010904//EN"
 "http://www.w3.org/TR/2001/REC-SVG-20010904/DTD/svg10.dtd">
<svg version="1.0" xmlns="http://www.w3.org/2000/svg"
 width="500.000000pt" height="500.000000pt" viewBox="0 0 500.000000 500.000000"
 preserveAspectRatio="xMidYMid meet">
<metadata>
Created by potrace 1.14, written by Peter Selinger 2001-2017
</metadata>
<g transform="translate(0.000000,500.000000) scale(0.100000,-0.100000)"
fill="#000000" stroke="none">
<path d="M2320 4994 c-19 -2 -78 -9 -130 -15 -467 -53 -946 -265 -1315 -581
-471 -404 -769 -957 -856 -1588 -17 -122 -18 -497 -1 -615 58 -412 185 -751
407 -1085 397 -598 1032 -990 1765 -1091 122 -17 497 -18 615 -1 412 58 751
185 1085 407 598 397 990 1032 1091 1765 17 122 18 497 1 615 -58 412 -185
751 -407 1085 -391 588 -1016 981 -1730 1086 -96 14 -453 27 -525 18z m1195
-1557 c173 -57 309 -170 386 -320 24 -47 41 -88 39 -91 -3 -2 -95 -38 -205
-79 l-200 -75 -29 55 c-36 67 -110 135 -164 151 -48 14 -134 15 -182 2 -49
-13 -109 -66 -131 -114 -25 -55 -25 -141 0 -182 43 -70 108 -102 356 -175 199
-59 292 -96 375 -150 165 -106 241 -254 241 -469 1 -181 -51 -315 -172 -444
-117 -125 -275 -208 -451 -236 -108 -18 -302 -8 -396 19 -190 55 -352 175
-447 331 -35 58 -85 178 -85 205 0 10 63 35 203 80 112 36 206 65 209 65 3 0
11 -19 18 -42 27 -94 95 -185 171 -234 159 -100 399 -52 474 96 51 100 42 203
-23 268 -52 52 -125 84 -324 143 -94 27 -206 63 -249 80 -88 34 -202 110 -248
166 -41 49 -86 144 -100 211 -16 75 -14 217 4 287 54 212 222 384 445 454 93
29 100 30 260 27 125 -2 156 -6 225 -29z m-1155 -182 l0 -185 -385 0 -385 0 0
-240 0 -240 375 0 375 0 0 -185 0 -185 -372 -2 -373 -3 -3 -442 -2 -443 -220
0 -220 0 0 1055 0 1055 605 0 605 0 0 -185z"/>
</g>
</svg>
