<svg fill="#f3f3f3" viewBox="0 0 246 244" xmlns="http://www.w3.org/2000/svg"><path d="m119.951 116.848c.176.05.351.088.531.12.45.211.93.365 1.43.446 4.565.742 6.54-4.255 5.49-8.016-1.191-4.276-6.826-4.49-9.766-1.791-3.089 2.839-1.594 8.104 2.315 9.241z"/><path d="m132.407 104.929c3.775-1.556 4.81-7.178 1.615-9.853-3.23-2.709-8.52.164-9.15 3.985-.2 1.213.079 2.509.755 3.54 1.17 2.28 4.07 3.445 6.78 2.328z"/><path d="m116.092 92.02c-4.95-2.271-11.305 1.822-10.305 7.466.345 1.973 1.74 3.719 3.57 4.465 1.49 1.041 3.31 1.463 5.16.752 4.999-1.925 7.11-10.143 1.575-12.683z"/><path d="m120.607 81.271c-.54.08-.995.45-1.1 1.19-.371 2.726 0 5.613 2.335 7.395 2.415 1.846 5.58 1.12 7.92-.485 2.025-1.385 4.44-3.67 4.625-6.275.185-2.536-1.665-4.924-4.03-5.711-3.091-1.027-7.765.891-9.75 3.886z"/><path d="m136.917 88.206c-.97 3.3 1.95 6.624 5.39 5.723.175-.046.345-.104.51-.17.58-.097 1.145-.323 1.645-.699.7-.521 1.145-1.245 1.315-2.034.56-.977.605-2.122.245-3.1-.08-.463-.215-.919-.43-1.351-1.315-2.617-5.07-3.471-7.27-1.431-.925.859-1.36 1.948-1.405 3.062z"/><path d="m103.217 79.696c-.182.325-.32.655-.42.988-1.819 3.142 2.475 6.601 5.44 7.093 4.15.689 6.82-4.885 4.64-8.115-2.13-3.16-7.7-3.459-9.66.034z"/><path d="m120.641 65.192c-3.719-1.477-8.239 1.382-7.974 5.508.105 1.66 1.005 3.016 2.24 3.828 1.614 1.389 4.085 1.761 6.085.324 3.235-2.327 3.755-8.026-.351-9.66z"/><path d="m139.332 64.101c-2.925-2.223-9.05-2.075-9.375 2.588-.105 1.449.33 2.782 1.09 3.828.995 2.091 3.295 3.47 5.88 2.845 3.945-.955 5.84-6.65 2.405-9.261z"/><path d="m142.717 74.647c-1.095 2.473.215 5.112 2.35 6.081.84.765 2 1.224 3.32 1.117 3.265-.263 5.5-3.942 4.51-6.863-.01-.063-.02-.127-.035-.189.01-1.1-.5-2.099-1.81-2.742-.635-.312-1.34-.401-2.04-.323-2.45-.575-5.175.382-6.295 2.919z"/><path d="m157.567 83.948c-1.045-.044-2.055.268-2.895.816-.425-.22-.95-.231-1.485.13-2.61 1.752-2.05 6.533-.1 8.651 2.695 2.932 7.08 1.233 8.645-1.935 1.7-3.431-.055-7.488-4.165-7.662z"/><path d="m153.052 101.719c-.09-4.195-4.85-6.879-8.45-4.604-1.23.779-1.985 1.93-2.295 3.177-1.02.811-1.595 2.151-1.475 3.507.195 2.134 1.93 3.861 3.945 4.412 4.17 1.139 8.37-2.195 8.275-6.492z"/><path d="m136.567 122.313c2.63.367 4.615-1.31 5.505-3.518 1.475-2.053 1.83-4.726-.555-6.327-.13-.087-.265-.166-.405-.239-2.69-2.951-7.665-2.28-9.29 1.515-.225.516-.36 1.037-.425 1.551-.02.026-.04.048-.055.076-.49.87-.32 1.837.085 2.699.975 2.093 2.78 3.913 5.14 4.243z"/><path d="m153.912 122.588c2.695 1.444 5.185.155 6.63-2.024 1.48-1.231 2.51-3.093 2.6-5.002.11-2.373-1.925-3.687-4.03-4.107-3.07-1.944-7.695-1.117-8.805 3.005-.295 1.104-.27 2.156 0 3.108.28 2.066 1.865 4.087 3.605 5.02z"/><path d="m163.967 99.519c-1.545-.437-3.135.3-3.81 1.635-.12.077-.24.172-.35.293-1.54 1.671-.99 4.389 1.165 5.221 1.54.593 3.175.048 4.19-1.129 1.09-.653 1.845-1.833 1.735-3.171-.13-1.529-1.27-2.478-2.595-2.732-.11-.043-.215-.084-.335-.117z"/><path d="m148.067 125.619c-.265-.325-.59-.579-.95-.769-2.065-1.295-5.035-1.17-7.16.094-.375-.005-.76.111-1.11.395-1.24.995-1.685 2.266-1.6 3.568-.41 2.367.59 4.922 3.19 5.745.35.112.715.175 1.08.195.34.171.69.308 1.04.404 4.27 1.173 8.09-4.242 6.51-8.091-.25-.601-.59-1.113-1-1.541z"/><path d="m108.952 108.431c-3.74-1.15-7.925 1.322-8.399 5.254-.177.342-.309.711-.378 1.099-.377 2.098.938 4.107 2.613 5.249 3.399 2.319 8.429 1.093 10.109-2.744 1.505-3.428-.32-7.745-3.945-8.858z"/><path d="m91.556 97.04c-.109 1.501.594 3.18 1.974 4.223 3.116 2.355 6.636.734 7.917-2.677 1.222-3.254 0-6.957-3.809-7.469-3.446-.464-6.474 2.489-6.082 5.923z"/><path d="m91.994 75.292c-2.623-.496-5.07 1.672-5.167 4.379-.141.252-.236.539-.275.842-.206 1.572.785 3.048 2.155 3.749.408.209.832.337 1.26.396 1.189.604 2.557.728 3.815.014 2.632-1.492 3.879-6.164 1.492-8.374-.946-.876-2.145-1.168-3.28-1.006z"/><path d="m102.543 61.867c-1.34.275-2.552 1.048-3.401 2.111-3.666 2.107-.604 7.444 2.629 8.26 2.076.525 4.081-.723 5.166-2.435.97-1.531 2.04-4.411 1.11-6.143-.965-1.799-3.715-2.16-5.504-1.793z"/><path d="m123.072 47.866c-2.77-.415-7.52-.678-9.015 2.355-1.295 2.631.44 6.811 2.589 8.5 1.896 1.489 3.911 1.517 5.68.651 2.796-.376 5.296-2.543 5.926-5.322.825-3.655-1.9-5.692-5.18-6.184z"/><path d="m147.722 56.387c-.14.084-.27.176-.395.273-1.475.982-2.405 2.685-2.045 4.522-.015.065-.025.132-.035.201-.225 2.039.9 3.895 2.415 5.186 1.75 1.492 3.49.894 4.88-.71 1.31-1.51 2.38-3.295 2.325-5.358-.05-2.007-1.28-3.801-3.195-4.454-.485-.166-.975-.246-1.46-.253-.82-.066-1.675.106-2.49.593z"/><path d="m140.662 48.26c-1.74-.704-3.78.013-4.775 1.746-1.115 1.944-.525 4.501 1.565 5.482.675.317 1.415.445 2.14.4.025-.002.055-.004.085-.006 1.375-.113 2.665-.86 3.285-2.193 1.01-2.178-.135-4.709-2.3-5.429z"/><path d="m159.782 63.16c-1.775.993-2.86 3.076-3.02 5.178-.99 2.389-.08 5.858 2.305 7.278 1.895 1.129 4.445.968 6.23-.29 1.985-1.398 3.1-4.263 3.21-6.631.21-4.496-4.65-7.815-8.725-5.535z"/><path d="m166.552 80.693c-.155.148-.295.313-.415.499-.905 1.373-.675 3.293.055 4.686 1.67 3.174 5.515 3.597 7.715.731 1.82-2.373 2.895-6.737-.74-8.039-2.325-.833-5.47-.008-6.615 2.123z"/><path d="m176.837 92.882c-1.305-.039-2.415.508-3.13 1.379-.64-.155-1.36.009-1.83.689-1.615 2.334.485 5.195 2.79 5.955.5.164 1 .234 1.495.229.89.212 1.86.032 2.8-.721.54-.434.96-.99 1.245-1.601.24-.421.36-.863.38-1.298.14-1.014-.065-2.053-.68-2.876-.64-1.01-1.73-1.716-3.07-1.756z"/><path d="m180.762 117.367c2.04-2.113 3.935-5.213 2.99-8.237-1.85-5.917-10.665-6.595-13.615-1.293-.12.211-.22.424-.315.638-.785.728-1.27 1.795-1.285 3.241-.03 2.922 1.445 5.994 4.075 7.396 2.875 1.532 6 .486 8.15-1.745z"/><path d="m167.162 122.858c-1.545-.008-2.93.773-3.83 1.922-.98.469-1.68 1.381-1.78 2.587-.135 1.709.965 3.32 2.365 4.211 2.72 1.732 6.805.693 7.73-2.607.795-2.855-1.47-6.096-4.485-6.113z"/><path d="m160.482 141.638c1.775-3.229.58-7.242-3.17-8.212-2.245-.58-4.76.212-6.25 1.874-2.61 1.705-1.71 6.051.385 8.165 2.99 3.012 7.14 1.63 9.035-1.827z"/><path d="m141.307 145.75c1.345-1.389 1.995-3.305 1.03-5.236-1.685-3.363-6.86-4.541-9.53-1.724-.95 1.004-1.275 2.201-1.165 3.394-.44 2.663 1.735 5.436 4.585 5.645.155.012.315.013.475.01 2.08.438 3.82-.554 4.605-2.089z"/><path d="m125.617 147.82c1.339-2.75-.166-6.218-2.88-7.444-3.015-1.359-6.601.58-7.52 3.668-.695 2.329.525 4.99 2.614 5.894.151.117.31.226.481.327 2.579 1.524 6.045.146 7.305-2.445z"/><path d="m96.375 135.093c1.112 1.808 2.807 2.625 4.602 2.702 1.588.464 3.39.304 4.835-.403 2.145-1.048 3.65-3.36 3.66-5.765 0-.81-.175-1.516-.485-2.132-.395-2.571-2.23-4.9-4.94-5.589-4.287-1.09-9.748 2.311-8.411 7.194.014.053.033.106.049.159-.248 1.254-.067 2.602.69 3.834z"/><path d="m85.387 114.325c.439.836 1.133 1.366 1.936 1.663.196.198.413.382.657.544.553.365 1.176.529 1.793.526 1.189.354 2.483.065 3.352-1.116.27-.367.475-.788.616-1.236.204-.188.397-.389.564-.621 1.13-1.573.737-3.64-.662-4.91-2.228-2.025-7.586-2.348-8.463 1.259-.128.527-.147 1.067-.08 1.6-.183.741-.099 1.554.287 2.291z"/><path d="m83.462 99.08c1.707-.133 3.036-1.426 3.737-3.035.718-1.229 1.208-2.658.899-4.001-.298-1.296-1.339-2.129-2.543-2.466-2.625-1.44-6.011.35-6.682 3.29-.906 2.58 1.703 6.437 4.589 6.212z"/><path d="m181.212 72.598c1.44-1.619 2.185-3.836.67-5.731-1.845-2.305-6.39-2.587-8.215-.137-1.225 1.642-.715 3.739.49 5.311.975 2 2.805 3.482 5.12 2.144.24-.137.475-.293.71-.465.465-.289.885-.672 1.225-1.122z"/><path d="m184.282 80.039c-1.14-.043-2.235.268-3.01.967-3.215 1.709-1.78 7.286 1.42 8.442 3.325 1.199 7.535-2.06 7.665-5.514.12-3.219-3.21-4.301-6.075-3.895z"/><path d="m87.332 69.762c4.152-.411 6.467-5.065 4.529-8.707-1.987-3.734-8.03-4.893-9.903-.43-.406.966-.502 2.115-.344 3.265-.63 3.066 2.178 6.223 5.718 5.872z"/><path d="m74.651 74.277c-3.46.488-5.23 3.471-4.316 6.562-.012.419.059.855.237 1.308.655 1.671 2.456 2.711 4.155 3.016 3.463.621 6.847-1.708 6.965-5.335.128-3.943-3.429-6.061-7.041-5.551z"/><path d="m68.109 102.899c3.94-.281 6.645-4.095 5.18-7.872-1.351-3.484-7.23-5.391-9.952-2.437-1.13 1.226-1.442 2.774-1.168 4.238-1.183 3.09 2.659 6.305 5.94 6.071z"/><path d="m79.986 110.165c-.382-2.169-1.752-4.231-4.016-4.731-2.081-.459-3.932.695-4.765 2.54-.322.249-.608.535-.854.85-1.474.907-2.196 2.674-1.768 4.459.504 2.099 2.306 3.84 4.323 4.518 4.822 1.623 7.824-3.402 7.08-7.636z"/><path d="m89.39 126.91c-.989-3.566-5.172-5.434-8.49-3.761-1.601.807-2.849 2.429-2.71 4.288.046.613.249 1.164.554 1.655.417 2.221 3.156 4.319 5.29 4.7 3.927.702 6.312-3.437 5.356-6.882z"/><path d="m89.197 151.765c3.896 1.296 7.724-1.841 7.554-5.878-.165-3.937-6.131-8.166-9.601-5.282-1.412 1.174-1.951 2.998-1.752 4.73-.822 2.345 1.256 5.584 3.799 6.43z"/><path d="m105.807 154.745c3.535.702 6.965-2.682 5.785-6.258-1.18-3.573-5.99-4.424-8.175-1.292-.242.347-.418.717-.54 1.096-.845.696-1.26 1.804-.919 3.073.469 1.744 2.114 3.037 3.849 3.381z"/><path d="m188.517 125.596c-1.185-3.973-7.255-3.666-9.635-1.09-.44.473-.725.992-.885 1.529-.025.03-.05.058-.075.09-2.415 3.262.665 7.415 4.36 7.287 3.55-.124 7.325-4.158 6.235-7.816z"/><path d="m193.522 102.991c3.31-1.998 4.86-7.69.75-9.611-2.71-1.268-6.125-.326-7.41 2.156-.23.33-.385.712-.44 1.145-.75.083-1.41.611-1.345 1.59.275 4.172 4.64 7.014 8.445 4.72z"/><path d="m191.967 120.638c4.595 1.456 7.5-5.386 6.06-8.924-1.49-3.669-6.96-4.367-9.105-.936-.48.764-.725 1.618-.775 2.476-.825 2.657 1.12 6.527 3.82 7.384z"/><path d="m203.747 86.141c1.185-1.888 1.08-4.477-1.57-5.162-.72-.185-1.505-.165-2.255.022-.53-.113-1.075-.171-1.605-.176-3.015-.028-5.33 2.8-3.565 5.411.48 1.512 1.85 2.899 3.265 3.518 2.71 1.189 5.14-1.02 5.73-3.613z"/><path d="m191.002 67.031c-2.77 1.725-1.975 5.866.525 7.451.685.435 1.38.605 2.045.575.345.041.705.034 1.065-.031 2.575-.461 4.12-3.474 3.14-5.86-1.05-2.558-4.44-3.589-6.775-2.135z"/><path d="m169.012 50.504c-.485.743-.745 1.575-.815 2.417-.525 1.06-.535 2.332.09 3.49 1.01 1.87 3.155 2.884 5.235 2.861 2.165-.024 4.13-1.093 5.43-2.794 1.165-1.517 2.19-3.928 1.07-5.725-2.265-3.626-8.69-3.838-11.01-.249z"/><path d="m186.047 54.953c-2.03 1.965-1.43 5.487 1.005 6.839 2.485 1.378 5.72.139 6.955-2.321 1.335-2.651.095-6.032-2.84-6.889-2.125-.62-4.26.542-5.12 2.371z"/><path d="m155.342 41.061c-1.85.351-4.065 1.082-4.61 3.123-.61 2.288.835 4.166 2.81 5.124.79.615 1.77 1.004 2.815 1.006 3.805.006 8.025-4.537 4.67-7.925-1.515-1.527-3.67-1.71-5.685-1.328z"/><path d="m202.807 106.062c2.7 1.786 6.385.018 7.97-2.638 2.125-1.736 3.275-4.48 1.87-7.292-1.45-2.903-4.565-3.951-7.285-3.367-2.82-.013-4.745 2.796-5.12 5.742-.18.567-.275 1.174-.275 1.786-.08 2.186 1.11 4.621 2.84 5.769z"/><path d="m177.577 145.987c2.585-2.929 1.69-7.445-1.88-9.056-1.095-.497-2.23-.62-3.285-.438-.34-.226-.775-.327-1.285-.207-4.02.945-5.53 5.659-3.255 8.982 2.195 3.202 7.105 3.663 9.705.719z"/><path d="m206.412 132.026c6-1.263 6.405-9.099 2.57-12.892-4.885-4.827-11.19.864-10.755 6.535.13 1.662.835 3.422 2.095 4.495 1.58 1.559 3.875 2.328 6.09 1.862z"/><path d="m214.212 117.255c1.725.023 3.03-1.322 3.715-2.846.445-.323.8-.791.985-1.426.445-1.524-.255-2.921-1.46-3.676-.3-.354-.665-.663-1.095-.908-3.56-2.039-7.545 1.274-6.78 5.142.325 1.634 1.545 3.045 3.135 3.351.46.223.96.355 1.5.363z"/><path d="m216.042 84.768c-.305-.772-.855-1.38-1.525-1.801-.17-.119-.35-.215-.54-.292-.935-.413-2.025-.5-3.025-.198-1.365.413-2.3 1.507-2.7 2.791-.435.45-.61 1.111-.2 1.8.01.134.025.267.045.4.385 2.294 2.575 3.814 4.655 2.656.38-.026.77-.109 1.165-.275 1.91-.801 2.895-3.159 2.125-5.081z"/><path d="m210.902 69.158c-.58-.871-1.55-1.354-2.56-1.437-1.175-.314-2.45-.134-3.445.762-.905.82-1.17 2.036-.995 3.216-.21.334-.31.755-.215 1.242.5 2.469 3.35 3.891 5.61 2.766 1.985-.985 2.86-3.341 2.07-5.342-.065-.418-.21-.826-.465-1.207z"/><path d="m67.923 126.121c.828-.996 1.344-2.328.853-3.458.005-.241-.01-.483-.053-.723-.34-1.864-2.011-2.681-3.771-2.679-3.295.005-7.848 2.189-5.619 6.113 1.795 3.162 6.281 3.526 8.59.747z"/><path d="m58.441 112.504c2.233-.873 3.969-4.038 2.872-6.336-1.174-2.462-4.865-2.471-6.742-.86-1.31 1.125-1.667 2.843-1.141 4.287.164 2.363 2.863 3.748 5.011 2.909z"/><path d="m57.549 86.014c1.176.701 2.484 1.023 3.647.698 2.036-.569 3.341-2.646 4.251-4.41.992-1.923 1.732-4.257.647-6.305-2.314-4.366-9.03-2.996-11.921-.056-2.813 2.861-.545 9.306 3.376 10.073z"/><path d="m51.713 98.704c2.537.075 4.707-2.238 4.265-4.862-.229-1.363-1.03-2.348-2.072-2.901-1.06-.754-2.485-.801-3.678-.261-.042.019-.083.04-.125.06-.23.088-.458.187-.678.312-1.131.648-2.24 1.683-2.314 3.063-.078 1.46.966 3.289 2.176 4.082.842.551 1.669.674 2.426.507z"/><path d="m74.678 56.667c-3.182-2.414-8.395-1.052-9.522 2.918-.367 1.292-.157 2.603.427 3.692 1.037 2.87 4.56 4.424 7.49 2.97 3.446-1.71 4.988-7.013 1.605-9.58z"/><path d="m97.631 46.11c-1.328 3.294.553 7.087 3.658 7.648 1.03.447 2.238.581 3.473.249 2.21-.597 4.11-2.541 5.04-4.589 1.005-2.211.29-4.422-1.52-5.951-3.505-2.966-8.939-1.606-10.651 2.643z"/><path d="m80.688 47.712c-.005.029-.016.055-.021.085-.272 1.509.643 2.791 1.866 3.579 1.102.71 2.548 1.245 3.863.927 1.482-.357 2.324-1.596 2.81-2.954.45-1.262.73-2.689.051-3.927-.688-1.257-2.039-2.044-3.447-2.167-2.613-.229-5.125 1.766-5.122 4.457z"/><path d="m132.332 33.627c-2.2.458-3.575 2.189-3.895 4.159-1.565 2.554-.14 5.901 2.93 6.635.27.065.54.103.81.121 0 0 0 .001.005.001 1.01.24 2.01-.049 2.82-.628 1.75-.924 3.08-2.742 3.31-4.723.38-3.278-2.68-6.253-5.98-5.565z"/><path d="m143.687 151.706c-.04.258-.065.524-.07.793-1.87 4.305 2.215 8.191 6.555 7.746 4.435-.453 6.985-5.522 3.825-9.01-2.64-2.917-9.43-5.069-10.31.471z"/><path d="m170.307 158.824c.905-1.441.845-2.955.165-4.195-.11-.235-.26-.461-.455-.677-.585-.731-1.41-1.317-2.375-1.661-.77-.275-1.705-.479-2.59-.441-.275-.1-.59-.13-.94-.057-3.47.723-3.25 5.157-1.355 7.313 1.96 2.237 5.865 2.403 7.55-.282z"/><path d="m129.727 164.66c4.345-.042 9.135-4.584 7.145-9.111-1.85-4.221-9.15-4.506-11.75-.934-.03.036-.05.074-.075.111-.255.114-.495.296-.695.56-3.1 4.103.664 9.418 5.375 9.374z"/><path d="m186.907 158.684c.985-2.742-.51-5.777-3.37-6.493-1.925-.481-3.915.439-4.96 2.012-.185.112-.355.262-.505.46-1.81 2.413-.76 5.91 1.955 7.09 2.725 1.185 5.88-.3 6.88-3.069z"/><path d="m215.957 141.597c1.305-4.115-4.12-5.765-7.16-5.489-3.53.321-6.75 3.407-4.765 7.072.4.74.93 1.309 1.535 1.726.46.692 1.065 1.288 1.77 1.678 3.31 1.828 7.64-1.909 8.62-4.987z"/><path d="m205.702 155.693c-.45-2.825-3.875-3.563-6.23-2.47-1.145.098-2.225.524-3.02 1.335-1.115 1.141-1.505 2.601-1.305 3.967-.32.716-.445 1.514-.29 2.38.34 1.917 1.925 3.422 3.87 3.616 3.43.342 7.545-3.655 6.96-7.196.09-.541.1-1.091.015-1.632z"/><path d="m186.937 165.727c-3.34-.514-6.965 1.629-6.925 5.291.02 1.674.875 3.317 2.13 4.361.1.099.195.195.295.284 2.815 2.58 6.515.571 8.04-2.354 1.8-3.447.43-6.97-3.54-7.582z"/><path d="m165.427 165.572c-2.08.822-2.87 2.788-2.685 4.753-.225 1.352.575 2.649 1.575 3.586.215.231.45.445.705.633.65.486 1.425.797 2.23.912 2.89.559 6.06-1.144 6.405-4.38.44-4.107-4.66-6.914-8.23-5.504z"/><path d="m155.197 169.639c-2.21-4.405-9.34-5.368-12.085-1.022-.515.808-.775 1.714-.83 2.642-.27 1.463.205 2.96 1.12 4.241.88 1.43 2.21 2.557 3.77 2.967.405.162.82.288 1.235.371 4.83.974 8.99-4.814 6.79-9.199z"/><path d="m135.317 173.405c-1.495-4.294-8.56-4.602-11.395-1.638-2.455 2.569-1.77 6.945.849 8.975.99.995 2.196 1.714 3.341 1.868 4.405.594 8.64-5.083 7.205-9.205z"/><path d="m117.516 163.311c-1.544-3.597-7.854-4.912-10.084-1.304-.475.772-.69 1.646-.69 2.535-1.915 2.662 1.165 6.777 4.36 7.087 4.02.39 8.095-4.413 6.414-8.318z"/><path d="m88.6 169.538c3.334 1.866 6.873.067 8.071-3.367.519-1.488.718-3.236.104-4.721-.748-1.81-2.549-2.665-4.371-3.053-3.243-.69-6.221 1.182-6.508 4.373-1.069 2.407.316 5.432 2.704 6.768z"/><path d="m71.5 162.269c3.46 2.571 8.264 1.84 9.86-2.39 1.415-3.747-.206-8.607-4.756-8.663-3.665-.046-8.647 2.374-7.519 6.75.038.149.084.298.136.447.194 1.455.986 2.896 2.279 3.856z"/><path d="m62.155 146.361c.211-4.77-4.564-7.164-8.803-5.768-2.654.874-4.053 3.178-3.978 5.521-.457 2.666 1.51 5.728 4.065 7.002 4.674 2.33 8.521-2.342 8.716-6.755z"/><path d="m53.582 134.241c.052-.012.104-.019.156-.035 2.148-.625 3.378-3.176 2.72-5.272-.753-2.394-3.699-3.175-5.775-1.994-2.017 1.147-2.732 3.724-1.519 5.723.922 1.52 2.813 2.081 4.418 1.578z"/><path d="m49.327 122.385c3.179-1.559 3.708-7.619 1.435-10.087-2.778-3.016-8.215-2.27-9.328 1.88-.476 1.777-.137 3.842.849 5.3 1.091 2.492 4.417 4.196 7.044 2.907z"/><path d="m36.033 103.144c.354.319.778.545 1.235.693.264.123.543.23.849.3.989.227 1.948-.003 2.765-.512 2.483-1.065 3.806-4.081 2.367-6.552-1.654-2.843-5.684-2.489-7.456.002-.929 1.306-1.114 2.977-.629 4.381.06.617.345 1.216.869 1.688z"/><path d="m32.98 140.61c.852.581 1.689.793 2.473.736.401.089.809.131 1.215.114 3.21-.13 5.089-4.796 3.812-7.456-.47-.979-1.335-1.613-2.361-1.957-.357-.148-.737-.23-1.127-.258-1.735-.232-3.659.195-4.869 1.068-2.871 2.072-1.751 5.975.857 7.753z"/><path d="m31.508 125.64c3.103.314 4.63-3.131 3.755-5.727-.063-.186-.139-.368-.223-.548-.262-.872-.828-1.563-1.529-2.028-1.156-1.011-2.676-1.588-4.205-1.279-3.026.611-3.263 3.96-1.661 6.061.421 1.753 2.133 3.346 3.863 3.521z"/><path d="m23.842 107.737c-.018.486.098.982.37 1.452.698 1.207 2.161 1.617 3.455 1.272 1.212-.323 2.518-1.041 3.442-2.033.12-.107.234-.225.34-.353.255-.305.442-.643.565-.998.219-.498.342-1.035.324-1.604-.177-5.467-10.463-3.085-8.496 2.264z"/><path d="m35.965 152.839c.315 1.075 1.063 2.046 2.22 2.609 2.915 1.419 6.374-.398 7.403-3.337.482-1.374.44-3.022-.365-4.272-.898-1.394-2.521-1.875-4.069-2.099-1.559-.226-3.163-.229-4.435.834-1.239 1.035-1.8 2.684-1.534 4.267.121.72.395 1.397.78 1.998z"/><path d="m58.915 169.431c3.762 2.274 7.402-.648 7.712-4.671.285-3.707-3.547-6.001-6.926-5.271-1.856.401-2.903 1.672-3.242 3.177-.514.642-.797 1.482-.762 2.325.079 1.887 1.694 3.519 3.218 4.44z"/><path d="m43.24 162.445c-.673 2.065.424 4.425 2.497 5.136 1.806.619 3.542-.078 4.597-1.442.898-.587 1.583-1.496 1.821-2.591.484-2.224-1.149-4.556-3.416-4.797-2.232-.237-4.807 1.567-5.499 3.694z"/><path d="m36.152 160.241c-2.381-2.203-7.173-2.367-8.814.815-.456.885-.569 1.8-.429 2.674-.356 1.599.763 3.006 1.969 4.012 1.498 1.249 3.274 1.803 5.16 1.067 3.281-1.281 4.885-6.005 2.114-8.568z"/><path d="m72.345 174.165c.396 2.002 2.05 3.654 3.86 4.471 3.754 1.694 7.937-.54 8.711-4.582.821-4.293-3.674-6.93-7.456-6.834-1.773.044-3.711.662-4.668 2.271-.591.996-.676 2.104-.43 3.159-.108.477-.12.989-.017 1.515z"/><path d="m101.475 185.149c1.967-.594 3.037-2.527 3.412-4.418.38-1.89.58-3.962-.86-5.475-2.51-2.637-8.379-1.967-9.474 1.814-.512 1.766.147 3.955 1.43 5.438 1.05 1.989 3.041 3.381 5.492 2.641z"/><path d="m119.007 182.729c-.16-2.619-2.275-4.834-4.99-4.533-3.34.371-4.17 3.852-2.505 6.427.165.253.36.481.57.691.36.579.855 1.093 1.5 1.49 2.895 1.785 5.6-1.177 5.425-4.075z"/><path d="m141.722 192.275c.375.072.765.075 1.15.024 3.105-.003 6.23-3.265 6.08-6.342-.21-4.235-7.21-4.698-9.835-2.725-.285.214-.525.459-.73.724-1.115.854-1.18 2.301-.7 3.744.425 2.143 1.995 4.189 4.035 4.575z"/><path d="m124.701 188.563c-1.849.683-2.62 2.286-2.565 3.944-.685 1.776-.359 4.01 1.281 5.435 3.365 2.931 8-.761 9.145-4.191 1.535-4.597-4.45-6.444-7.861-5.188z"/><path d="m164.112 187.947c2.105-.854 3.34-3.639 2.54-5.723-.215-1.028-.815-1.948-1.895-2.541-2.665-1.459-6.735-.223-6.835 3.174-.045 1.489.69 3.054 1.83 4.106 1.175 1.24 2.78 1.905 4.36.984z"/><path d="m175.947 190.094c2.96 2.031 7.48.671 8.455-2.902.945-3.465-2.875-7.254-6.34-6.548-1.79.364-2.74 1.542-3.075 2.973-.8.432-1.37 1.155-1.43 2.267-.09 1.693 1.05 3.291 2.39 4.21z"/><path d="m199.477 168.821c-2.8 1.249-3.925 4.831-2.185 7.324.385 1.044 1.08 1.983 2.02 2.537 3.4 2.003 6.96-2.347 7.425-5.42.61-4.065-4.025-5.88-7.26-4.441z"/><path d="m191.717 192.414c.065.06.13.115.19.171.385.543.89 1.014 1.525 1.355 2.85 1.519 6.56-.035 7.175-3.258.03-.156.05-.31.07-.462.46-1.351 0-2.532-.905-3.373-1.14-1.535-3.19-2.375-5.315-2.012-1.545.263-3.105 1.042-3.83 2.495-.845 1.694-.22 3.814 1.09 5.084z"/><path d="m171.667 200.975c.925-1.431 1.415-3.355.695-4.97-.75-1.676-2.615-2.573-4.345-2.904-2.59-.495-5.055 1.012-5.855 3.231-1.155 1.764-1.1 4.346.52 5.977 2.695 2.719 7.02 1.698 8.985-1.334z"/><path d="m186.072 197.385c-2.565-1.372-6.99-1.477-7.86 1.948-.025.116-.05.233-.075.35-1.005 1.809-.65 4.162 1.075 5.68 2.34 2.055 5.83 1.549 7.83-.699 2.125-2.378 1.98-5.702-.97-7.279z"/><path d="m152.037 201.225c-.92-4.239-6.95-5.302-9.94-2.597-.735.664-1.2 1.411-1.44 2.186-2.575 2.737.98 7.953 4.335 8.376 4.17.525 7.925-3.903 7.045-7.965z"/><path d="m113.712 198.042c2.03-3.243.21-7.48-3.285-8.685-2.26-.779-4.79-.201-6.05 1.441-.995.638-1.777 1.518-1.925 2.786-.227 1.949 1.31 4.051 2.67 5.311 2.53 2.348 6.655 2.24 8.59-.853z"/><path d="m90.795 188.798c.549-4.388-4.879-6.325-8.345-4.937-1.379.552-2.486 1.676-2.958 3.061-1.379 2.471.207 5.957 2.971 7.108 3.708 1.545 7.852-1.397 8.332-5.232z"/><path d="m92.743 201.991c.642.522 1.461.853 2.278.88 1.972.064 3.789-1.457 3.807-3.483.019-2.135-1.706-3.835-3.858-3.664-2.154.17-4.744 1.702-3.925 4.206.285.868.916 1.588 1.698 2.061z"/><path d="m59.508 187.905c.908.956 2.134 1.643 3.628 1.872 4.753.727 7.572-4.966 6.09-8.932-1.499-4.013-6.997-5.781-10.315-2.776-2.734 2.477-2.099 7.476.597 9.836z"/><path d="m219.242 155.13c-1.835-2.716-6.595-4.201-8.31-.583-1.125 2.371-.315 5.175 1.61 6.387.885.887 2.025 1.529 3.11 1.588 2.25.124 3.75-1.376 4.245-3.227.485-1.054.515-2.329-.055-3.362-.155-.287-.355-.543-.58-.769-.005-.011-.015-.023-.02-.034z"/><path d="m219.912 168.277c-1.545-.44-3.005-.169-4.08.581-2.795-.078-4.14 3.473-2.9 6.132 1.6 3.431 6.19 3.643 8.79 1.23 2.79-2.584 1.935-6.877-1.81-7.943z"/><path d="m211.817 184.653c-.55.183-1.035.476-1.44.843-.285-.001-.585.095-.885.325-3.61 2.738-1.14 7.6 2.945 7.88 3.55.244 8.155-4.107 5.055-7.489-1.355-1.476-3.755-2.2-5.675-1.559z"/><path d="m228.427 156.152c-.66.318-1.23.832-1.695 1.459-.195.074-.39.19-.575.36-2.855 2.639-.28 8.054 3.04 9.041 3.725 1.107 7.18-3.314 7.115-6.736-.07-3.865-4.66-5.683-7.885-4.124z"/><path d="m235.747 143.12c.155-4.339-6.265-6.005-9.41-4.042-.64.399-1.135.946-1.495 1.576-1.66.552-2.475 2.438-2.03 4.136.47 1.773 1.9 3.494 3.59 4.2 3.72 1.557 9.195-1.71 9.345-5.87z"/><path d="m198.652 200.902c-1.505.828-2.455 2.602-2.55 4.366-.335.266-.58.662-.63 1.187-.315 3.175 3.455 4.313 5.955 3.76 2.81-.619 5.305-3.499 4.455-6.479-.8-2.784-4.725-4.211-7.23-2.834z"/><path d="m225.622 128.366c.215-2.728-2.475-4.588-5.01-4.374-3.03.255-4.545 3.331-3.34 6.019.04.09.09.174.13.26.56 1.341 1.955 2.524 3.28 2.768 2.82.518 4.735-2.119 4.94-4.673z"/><path d="m241.152 128.056c-.305-3.533-4.275-5.457-7.375-4.039-3.335 1.526-4.01 6.372-.8 8.44.73.469 1.495.69 2.245.713 3.1.741 6.215-1.785 5.93-5.114z"/><path d="m228.152 120.792c3.475-.175 6.53-5.094 4.535-8.178-1.945-2.997-7.58-2.261-9.175.734-.9 1.683-.6 3.679.435 5.074.91 1.398 2.515 2.455 4.205 2.37z"/><path d="m217.737 99.783c.05.535.21 1.077.485 1.617.84 1.65 2.295 3.118 4.24 3.083 3.3-.059 7.435-4.479 5.87-7.847-.71-1.536-2.385-2.172-3.95-2.48-1.825-.36-4.235-.551-5.735.793-1.315 1.182-1.46 3.092-.91 4.834z"/><path d="m233.832 98.636c-3.185.806-2.145 4.975-.275 6.654 2.23 2 5.5 1.629 7.23-.796 1.825-2.56.695-5.69-2.205-6.753-1.7-.623-3.63-.293-4.75.895z"/><path d="m239.762 110.644c-.335.162-.61.386-.83.649-.05.037-.1.073-.145.114-.15.132-.28.275-.395.426-.45.183-.82.508-1.07.992-.48.92-.175 1.962.485 2.701.46.517 1.075.898 1.73 1.066.875.415 1.95.326 2.775-.393 1.035-.896 1.47-2.581 1.1-3.883-.45-1.559-2.18-2.39-3.65-1.672z"/><path d="m228.627 86.636c.415-.601.71-1.285.885-1.987.32-.768.525-1.572.595-2.337.355-3.825-4.095-5.195-7.145-4.001-1.655.649-2.695 1.99-3.075 3.526-.04.042-.075.086-.11.134-1.45 2.025-.135 4.21 1.74 5.477 2.075 1.909 5.39 1.704 7.11-.812z"/><path d="m233.637 88.871c-.105.186-.195.384-.26.589-.745.849-.9 2.08.06 3.122 1.165 1.261 3.06 1.966 4.495.701.05-.045.095-.093.145-.14 1.155-.904 1.72-2.619 1.34-4.013-.43-1.556-2.03-2.427-3.575-2.158-1.07.186-1.86.951-2.205 1.899z"/><path d="m216.622 66.044c-2.125 2.556-1.105 6.409 2.03 7.541 3.18 1.151 7.04-1.557 6.915-4.988-.015-.366-.09-.716-.21-1.048-.045-.428-.16-.841-.35-1.22-1.515-2.984-6.475-2.588-8.385-.285z"/><path d="m228.232 71.307c-.44.678-.445 1.455-.2 2.185.04.677.31 1.359.885 1.953.635.659 1.55.983 2.42.924.095.011.19.018.285.021 1.655.056 3-1.199 3.11-2.836.105-1.529-.88-2.89-2.3-3.399-.94-.336-1.845-.214-2.585.184-.645.062-1.235.383-1.615.968z"/><path d="m242.962 137.674c-1.485-.401-2.96.444-3.505 1.842-.46 1.171-.205 2.606.59 3.583.16.271.36.498.59.683.215.222.455.42.72.587.65.408 1.28.302 1.74-.054.235-.051.465-.128.685-.234 2.775-1.35 2.005-5.644-.82-6.407z"/><path d="m229.147 176.53c-1.665-.815-3.08.407-3.76 1.862-.66 1.416-1.03 3.273.515 4.287.02.013.04.023.06.035.45.549 1.095.905 1.915.872 1.85-.074 2.895-1.917 2.945-3.739.005-.027.005-.054.005-.082v-.174c0-.011 0-.022-.005-.033-.035-1.273-.57-2.489-1.675-3.028z"/><path d="m160.667 207.103c-3.17-.192-5.445 2.763-4.73 5.711-.51 1.955 1.08 4.383 3.12 5.107 2.93 1.038 6.605-1.119 7.46-4.063 1.045-3.598-2.54-6.556-5.85-6.755z"/><path d="m174.247 212.19c-.915.65-1.515 1.578-1.8 2.58-.25.608-.285 1.286-.16 1.969.125 1.081.61 2.097 1.45 2.802.62.671 1.38 1.192 2.19 1.43 3.31.974 7.615-1.988 6.79-5.701-.805-3.612-5.575-5.128-8.47-3.08z"/><path d="m196.662 215.307c-.22-.238-.48-.454-.8-.636-2.25-1.285-5.175.121-5.865 2.533-.155.54-.19 1.097-.12 1.632.03.409.115.815.26 1.194.97 2.55 4.04 2.888 5.85.999.75-.776 1.285-1.847 1.435-2.918.18-.699.155-1.41-.18-2.045-.155-.3-.355-.551-.58-.759z"/><path d="m175.002 224.768c-2.375-.598-5.08.809-5.525 3.301-.32 1.782.695 3.337 2.185 4.014 1.99 1.827 4.815.224 5.895-1.841 1.22-2.32-.065-4.847-2.555-5.474z"/><path d="m160.147 222.314c-1.645-.943-4.09-1.067-5.775-.101-2.98 1.075-4.345 3.989-2.215 6.751 2.05 2.654 5.58 2.982 8.105.788 2.34-2.036 2.885-5.719-.115-7.438z"/><path d="m142.102 211.077c-4.45-1.375-8.035 2.618-7.88 6.913.085 2.387 1.45 4.269 3.33 5.308.225.165.46.32.71.46 2.1 1.188 4.605 1.235 6.56-.246 1.405-1.064 2.75-2.743 2.48-4.531.48-3.31-2.02-6.922-5.2-7.904z"/><path d="m118.237 206.309c-2.29 5.49 4.159 10.439 9.005 7.358.07-.019.13-.041.195-.064.795.35 1.7.319 2.735-.402 2.19-1.522 2.59-4.714 1.57-7.022-2.43-5.498-11.195-5.403-13.505.13z"/><path d="m121.172 224.712c.01.027.02.052.029.079.176.595.476 1.179.896 1.697 1.59 1.959 4.234 3.189 6.72 2.303 2.33-.829 3.585-3.463 2.95-5.831-.58-2.175-2.635-3.804-4.85-4.078-.656-.209-1.345-.321-2.031-.319-2.699.007-4.579 2.335-3.99 4.999.016.065.036.127.051.191.04.322.11.644.225.959z"/><path d="m138.902 227.943c-3.37.7-4.425 4.791-2.34 7.225.27.621.64 1.178 1.09 1.604 3.06 2.889 7.325.571 8-3.187.725-4.045-3.1-6.401-6.75-5.642z"/><path d="m156.162 234.055c-1.37-.065-2.795.335-3.65 1.28-1.43 1.585-.775 4.006.905 5.043 1.545 1.47 4.08 1.641 5.665.119 1.155-1.11 1.435-2.869.815-4.251-.415-1.468-2.12-2.465-3.735-2.191z"/><path d="m124.812 231.961c-2.075.17-3.405 1.934-3.726 3.878-.019.102-.029.205-.044.308-.76 1.115-.841 2.579-.115 3.873.399.715.969 1.327 1.64 1.816.014.014.025.028.04.042.52.472 1.094.752 1.695.879.665.24 1.355.381 2.034.409 4.651.192 7.896-4.92 4.431-8.552-1.38-1.443-3.91-2.821-5.955-2.653z"/><path d="m107.292 229.186c-2.535.245-5.636 1.885-5.61 4.299-.007.017-.016.031-.023.049-1.49 3.523 1.57 6.427 5.043 6.588 3.315.153 6.545-2.275 7.03-5.627.51-3.538-3.385-5.605-6.44-5.309z"/><path d="m111.442 214.447c-3.385-.156-6.66 2.578-6.065 6.138.045.276.11.541.195.797.04 1.805 1.205 3.586 3.245 4.249 3.275 1.064 7.365-.978 8.12-4.418.76-3.456-2.105-6.609-5.495-6.766z"/><path d="m106.467 209.7c.07.016.145.021.22.031.65.289 1.41.355 2.175.105.915-.301 1.515-.911 1.835-1.648.735-1.159.505-2.586-.36-3.517-.12-.19-.25-.373-.4-.542-.73-.811-1.815-1.196-2.865-.925-.405-.021-.81.02-1.18.143-1.505.496-1.965 1.945-1.705 3.309-.105 1.358.76 2.723 2.28 3.044z"/><path d="m101.761 212.359c-.234-4.442-4.877-7.353-9.012-5.887-2.039.723-4.058 2.021-4.788 4.162-.683 2.005-.212 4.35 1.169 5.951.549.636 1.226 1.146 1.974 1.526.682.521 1.492.914 2.41 1.117 4.321.956 8.483-2.385 8.247-6.869z"/><path d="m96.894 227.545c-.254-2.445-3.517-4.611-5.904-3.872-.888.275-1.398.77-1.637 1.374-.605.114-1.081.596-1.322 1.202-1.112 2.784 2.039 5.316 4.538 5.59 2.477.273 4.583-1.796 4.325-4.294z"/><path d="m80.119 225.755c-.388-.315-.829-.574-1.31-.761-1.55-.602-3.468-.407-4.725.749-1.089 1-1.304 2.39-.956 3.698.003.052.008.104.013.155-.307.899-.314 1.853.254 2.821.87 1.485 2.751 2.271 4.421 2.187 3.522-.177 6.083-4.2 3.997-7.301-.439-.653-1.029-1.172-1.694-1.548z"/><path d="m95.905 234.867c-1.22-.745-2.918-.858-4.09-.119-1.107.699-1.409 1.798-1.183 2.856-.099.339-.11.711-.002 1.106.284 1.03 1.326 1.807 2.25 2.239 1.868.874 4.179.234 4.914-1.815.639-1.778-.322-3.499-1.889-4.267z"/><path d="m72.253 199.702c.379.017.733-.021 1.063-.108.113.009.229.011.347.005 2.111-.098 2.926-2.628 2.513-4.383-.014-.06-.034-.116-.051-.174-.062-.946-.385-1.881-1.013-2.638-1.12-1.351-2.971-1.882-4.64-1.332-1.162.382-1.955 1.264-2.42 2.321-.593.699-.857 1.657-.58 2.71.058.221.138.434.237.641.551 1.991 2.559 3.246 4.544 2.958z"/><path d="m62.817 201.187c-.787-1.909-2.689-3.784-4.726-4.262-2.238-.525-4.437.581-6.006 2.119-1.472 1.443-3.07 3.346-2.519 5.541.431 1.717 1.875 3.021 3.506 3.611.884.575 1.876.978 2.871 1.136 4.163.661 8.583-4 6.874-8.145z"/><path d="m59.83 212.835c-3.675.962-7.4 6.521-4.408 9.814.232.254.49.48.766.683.363.472.792.9 1.286 1.258 3.611 2.617 9.464 1.17 9.94-3.703.406-4.157-2.873-9.284-7.584-8.052z"/><path d="m214.527 196.78c-1.405-.449-3.22.071-4.205 1.156-1.235 1.365-1.015 3.45.28 4.694 1.19 1.144 3.115 1.429 4.555.605 1.345-.771 1.785-2.451 1.23-3.801.01-1.154-.615-2.255-1.86-2.654z"/><path d="m205.632 54.518c-1.005-1.017-2.345-1.677-3.83-1.652-3.51.058-4.97 4.394-3.52 7.176.165.315.36.601.58.864.635 1.158 1.675 2.131 2.83 2.536 3.085 1.08 5.755-1.71 5.74-4.7 0-.065-.01-.129-.01-.194.315-.72.065-1.498-.43-1.988-.245-.79-.7-1.506-1.36-2.042z"/><path d="m211.837 55.487c-.27 1.692.585 3.822 1.72 4.804 2.42 2.093 5.76-.026 6.785-2.537 1.105-2.705-.29-6.063-3.28-6.689-2.8-.588-5.215 1.659-5.225 4.422z"/><path d="m225.322 63.04c.465.267.98.388 1.495.382.425.136.885.158 1.38.006 1.41-.433 2.285-1.899 1.965-3.341-.275-1.26-1.415-2.238-2.66-2.474-.19-.035-.375-.055-.565-.06-.635-.413-1.585-.392-2.11.201-.35.397-.575.843-.685 1.307-.085.16-.16.332-.215.517-.415 1.345.185 2.77 1.395 3.462z"/><path d="m208.062 47.396c3.135 1.33 6.505-1.06 7.685-3.959 2.46-6.068-11.72-7.644-11.025-1.215-.18 2.075 1.41 4.354 3.34 5.174z"/><path d="m195.887 49.397c.965.228 1.875-.055 2.62-.62.54-.297 1.03-.732 1.445-1.307.74-1.034.97-2.347.65-3.463-.145-1.268-.82-2.398-2.2-2.742-.85-.211-1.61.004-2.21.456-.38.027-.755.096-1.11.22-2.32.813-2.86 3.197-1.795 5.105.475 1.126 1.405 2.07 2.6 2.351z"/><path d="m197.197 36.615c2.19 1.438 5.14.701 6.41-1.597 1.44-2.612-.105-5.867-2.775-6.868-1.705-.64-3.555-.287-4.675.882-.5.007-1 .222-1.365.731-1.56 2.195.465 5.578 2.405 6.852z"/><path d="m187.627 42.943c.705-1.805-.02-3.359-1.32-4.385-.39-.405-.895-.708-1.525-.865-.725-.284-1.51-.441-2.27-.442-2.275-.004-3.745 1.576-4.055 3.455-.995 2.042-.13 4.656 2.095 5.633 2.93 1.284 5.98-.601 7.075-3.396z"/><path d="m184.052 33.309c2.31 1.292 4.93.372 6.26-1.827 1.34-2.209.92-5.363-1.685-6.393-2.055-.815-3.84.465-4.73 2.225-.085.037-.175.08-.26.135-2.305 1.447-1.82 4.606.415 5.86z"/><path d="m164.292 32.833c-1.215 3.005-.03 6.63 3.235 7.794 3.44 1.227 6.33-1.239 6.65-4.652.31-3.313-2.18-6.615-5.685-6.429-2.195.117-3.655 1.517-4.2 3.287z"/><path d="m144.842 31.038c-2.02 2.451.105 6.335 3.11 7.339 3.475 1.163 7.225-.866 8.165-4.41 1.04-3.942-2.42-6.821-6.16-6.922-2.84-.077-4.66 1.71-5.115 3.993z"/><path d="m158.032 23.221c.835.943 2.04 1.488 3.58 1.248 1.69-.264 2.96-1.447 3.7-2.958 1.27-2.216 1.255-5.163-.475-6.765-.08-.099-.17-.196-.26-.288-3.23-3.245-8.485-.742-8.625 3.628-.055 1.919.535 3.929 2.08 5.135z"/><path d="m173.097 22.326c.535 1.802 1.775 3.495 3.695 3.931 4.39.994 6.39-4.537 4.02-7.651-1.2-1.574-3.435-2.498-5.295-1.486-.2.11-.385.238-.555.379-.055.012-.115.026-.175.044-2.15.656-2.245 2.933-1.69 4.783z"/><path d="m146.882 13.135c.695.194 1.36.185 1.985.025.07-.016.14-.035.21-.055.535-.023 1.085-.179 1.615-.498 1.155-.691 1.905-2.079 2.045-3.465.78-2.437.19-5.161-2.86-5.664-.41-.068-.825-.075-1.23-.031-2.395-.313-5.05.886-5.535 3.414-.3 1.578.235 3.223 1.225 4.45.625.855 1.48 1.526 2.545 1.824z"/><path d="m172.772 16.055c1.105-.389 1.74-1.475 2-2.57.355-1.503-.44-2.708-1.84-3.229-1.07-.397-2.255-.23-3.12.482-.32.137-.605.367-.8.677-1.375 2.156 1.395 5.471 3.76 4.64z"/><path d="m137.087 18.182c-.01.01-.02.018-.03.029-2.34 2.314-1.45 6.091 1.185 7.799 3.035 1.967 6.445-.215 7.995-2.962.67-1.182 1.33-2.626.995-4.015-.38-1.552-1.79-2.5-3.215-2.975-2.475-.824-5.55-.1-6.93 2.124z"/><path d="m119.951 20.997c-3.649.227-5.879 3.58-4.539 7.037.63 1.634 2.01 3.097 3.615 3.756.415.235.845.415 1.275.521 3.505.861 6.435-2.401 6.719-5.672.341-3.841-3.739-5.848-7.07-5.642z"/><path d="m114.622 41.453c.14.855.59 1.676 1.389 2.324 2.075 1.678 5.471.834 6.421-1.701.545-1.447.095-2.599-.81-3.389-.085-.155-.195-.305-.32-.446-.115-.128-.245-.239-.38-.339-.865-1.063-2.17-1.789-3.536-1.781-1.394.007-2.524.97-2.794 2.324-.1.499-.065.97.065 1.408-.165.506-.19 1.053-.035 1.6z"/><path d="m128.437 17.548c.845.408 1.815.526 2.855.199.015-.005.03-.011.045-.016.24-.052.475-.122.71-.211 3.005-1.15 5.34-6.273 2.65-8.77-2.64-2.453-7.535-1.21-8.866 2.035-.099.242-.169.492-.224.747-.045.074-.091.152-.125.24-1.135 2.668.599 4.976 2.955 5.776z"/><path d="m115.617 9.335c2.55 1.835 5.644.828 6.894-1.953 1.231-2.733.516-5.878-2.454-7.025-2.55-.986-5.63.12-6.67 2.719-.055.145-.105.292-.145.441-.71 2.031.655 4.579 2.375 5.818z"/><path d="m139.372 5.043c.665-1.242.115-2.57-.82-3.494-1.05-1.041-2.565-1.333-3.805-.413-.56.415-.925 1.024-1.08 1.684-.7.516-.8 1.405-.45 2.174 1.02 2.252 5.045 2.123 6.155.049z"/><path d="m108.007 11.039c-1.115.617-1.895 1.666-2.235 2.833-.735 1.114-.75 2.594-.335 3.854.925 2.789 3.97 3.758 6.55 2.603 2.535-1.136 3.835-4.034 2.845-6.661-.99-2.638-4.29-4.033-6.825-2.629z"/><path d="m91.958 13.682c3.388 2.096 9.031.437 9.527-3.928.209-1.833-.688-3.084-2.033-3.801-.456-.646-1.125-1.145-1.962-1.374-1.549-.424-3.085-.015-4.202.839-4.663.267-4.814 6.109-1.33 8.264z"/><path d="m105.977 5.79c.315.349.72.613 1.215.726 1.005.23 2.1-.135 2.73-.953.66-.853.745-2.028.195-2.967-.505-.864-1.37-1.303-2.255-1.344-.06-.014-.125-.029-.19-.038-1.02-.137-1.86.423-2.285 1.259-.06.095-.125.193-.175.298-.54 1.066-.285 2.458.765 3.019z"/><path d="m92.486 33.061c4.413 2.165 9.633-1.088 10.478-5.75.938-5.165-4.908-8.419-9.442-7.254-3.322.854-5.148 3.922-4.722 6.88-.04 2.369 1.506 5.054 3.686 6.124z"/><path d="m108.577 35.719c1.175.318 2.565-.046 3.39-.958.93-1.029 1.07-2.569.375-3.77-.695-1.202-2.07-1.955-3.465-1.642-.165.037-.32.092-.47.156-.165.035-.335.088-.485.177-2.405 1.386-2.125 5.286.655 6.037z"/><path d="m72.007 39.416c1.388 1.098 3.09 1.425 4.723 1.173 4.156.166 8.994-2.91 7.958-7.55-1.012-4.536-6.422-7.703-10.595-5.075-3.771 2.375-6.149 8.237-2.086 11.452z"/><path d="m81.335 21.011c2.323-.082 4.102-2.273 4.12-4.518.021-2.549-2.367-4.105-4.748-4.045-1.612.041-2.896 1.006-3.5 2.341-.726.269-1.267.97-.972 1.929.711 2.315 2.485 4.385 5.1 4.293z"/><path d="m61.281 22.239c1.684 2.087 4.503 2.044 6.018-.171 1.347-1.966 1.581-4.751-.309-6.443-1.8-1.612-4.796-1.241-6.096.817-.607.961-.738 2.083-.468 3.085-.083.917.196 1.897.855 2.712z"/><path d="m55.375 38.931c3.422 1.909 7.066.292 8.144-3.397 1.164-3.984-1.829-7.2-5.849-6.858-1.937.165-3.983 1.249-4.973 2.84-2.777 2.127.383 6.134 2.678 7.415z"/><path d="m64.011 44.035c-.005.007-.009.016-.014.024-.396.333-.665.703-.829 1.092-.387.338-.689.778-.863 1.296-.449 1.345.103 2.74.964 3.783 1.73 2.093 4.579 2.235 6.45.236 1.603-1.712 2.475-4.796.738-6.714-1.629-1.798-5.069-1.876-6.446.283z"/><path d="m48.502 52.262c.016.615.157 1.171.39 1.667.022.093.048.185.075.277.244 1.333.954 2.594 2.184 3.536 3.235 2.477 8.878 1.038 9.077-3.527.136-3.119-3.238-5.997-6.437-6.256-.469-.446-1.165-.625-1.887-.184-.344.21-.66.447-.948.707-1.45.596-2.503 1.833-2.454 3.78z"/><path d="m29.783 60.631c5.004 1.526 10.061-2.748 9.269-7.913-.76-4.963-6.728-8.508-10.989-5.1-1.929 1.543-3.085 4.18-3.234 6.626-.094 1.534.471 2.761 1.437 3.652.776 1.249 1.983 2.267 3.517 2.735z"/><path d="m46.851 62.304c-1.142.023-2.243.402-3.062 1.307-.122.135-.225.276-.319.419-.335.404-.612.879-.811 1.433-.868 2.407.569 4.72 2.645 5.811.635.402 1.361.673 2.115.785 3.864.568 8.253-3.917 5.31-7.493-1.37-1.664-3.742-2.503-5.878-2.262z"/><path d="m59.148 66.455c-.07.248-.096.501-.083.751-.028.11-.045.222-.055.336-.198.463-.203 1.001.091 1.458.489.764 1.069 1.403 1.867 1.718.501.226 1.055.298 1.613.133.016-.004.03-.013.045-.018.823-.234 1.498-.909 1.729-1.761.255-.936-.025-1.801-.583-2.438-.261-.424-.604-.8-1.016-1.1-1.17-.852-3.162-.643-3.608.921z"/><path d="m36.729 78.997c-.199.594-.286 1.217-.279 1.841-.438 2.563 1.591 5.616 3.766 6.838 3.444 1.935 7.049-.86 8.21-4.092 1.184-3.295 1.129-7.997-3.075-8.815-3.351-.652-7.478.803-8.622 4.228z"/><path d="m37.091 64.893c-1.419-.407-2.915-.218-3.854.888-.152.078-.288.184-.398.325-1.093 1.401-1.092 3.092-.044 4.545 1.044 1.447 2.59 2.366 4.368 1.587 3.07-1.345 3.427-6.343-.072-7.345z"/><path d="m19.115 71.239c3.421 1.063 7.282-1.039 8.15-4.533.849-3.414-1.897-6.786-5.281-7.148-3.27-.349-7.337 2.263-7.381 5.821-.015 1.222.459 2.258 1.214 3.071.675 1.279 1.892 2.352 3.298 2.789z"/><path d="m25.531 76.443c-1.167.721-1.863 1.94-2.11 3.262-1.445 2.902 1.018 6.319 4.261 6.689 3.251.371 6.16-2.402 5.825-5.678-.353-3.444-4.813-6.225-7.976-4.273z"/><path d="m13.794 82.308c.227.1.461.184.704.247 1.729.45 3.603-.445 4.564-1.898 1.083-1.637 1.052-3.811.288-5.568-1.181-2.718-4.35-3.313-6.758-2.172-.4-.024-.815.133-1.168.551-.155.184-.292.378-.412.581-.228.238-.436.499-.617.786-1.878 2.974-.058 7.14 3.399 7.473z"/><path d="m26.555 96.608c1.017 1.183 2.636 1.626 4.164.882 1.775-.865 2.923-2.969 2.537-4.922-.401-2.026-2.281-3.113-4.258-2.936-1.543.139-2.85.935-3.454 2.245-.346.538-.497 1.174-.346 1.838.053 1.1.544 2.197 1.357 2.893z"/><path d="m12.539 97.417c.668.199 1.366.293 2.061.253 4.632-.27 7.168-5.555 4.545-9.36-2.487-3.608-8.089-3.874-10.575-.082-2.319 3.536-.169 8.606 3.969 9.189z"/><path d="m20.474 110.463c4.665-5.237-5.911-10.723-8.964-5.86-.654.583-1.185 1.276-1.419 2.17-.417 1.589.199 3.316 1.375 4.42 2.511 2.359 6.816 1.73 9.008-.73z"/><path d="m4.271 103.668c1.224.646 2.781.432 3.856-.457 2.538-2.097 1.337-7.393-2.4-6.893-1.35.181-2.404 1.161-2.936 2.348-.337.373-.588.83-.701 1.359-.379 1.767.728 3.044 2.181 3.643z"/><path d="m4.91 121.056c.447.082.909.105 1.375.06 2.95-.285 4.405-3.574 3.379-6.161-.95-2.393-3.702-3.869-6.216-3.169-2.743.763-3.689 3.766-2.697 6.249.732 1.833 2.383 2.975 4.159 3.021z"/><path d="m14.752 125.411c1.923 1.536 5.042 1.555 6.827-.224 1.988-1.979 1.73-5.397-.656-6.946-2.186-1.418-5.308-.502-6.308 1.906-.599.375-1.088.884-1.299 1.626-.388 1.361.398 2.808 1.436 3.638z"/><path d="m25.463 140.337c2.097-2.385 1.743-6.131-.539-8.267-2.55-2.388-5.731-1.423-7.298 1.302-2.799 1.14-2.511 4.958-.649 7.27 2.175 2.702 6.335 2.141 8.486-.305z"/><path d="m9.732 133.535c.416-.799.604-1.72.467-2.644-.461-3.112-4.005-4.286-6.432-2.506-2.409 1.768-2.845 5.28-.192 7.069 2.162 1.459 5.14.367 6.157-1.919z"/><path d="m23.132 152.893c.892 1.291 2.543 1.581 3.956 1.137 1.042.069 2.118-.273 3.046-1.169 1.375-1.329 1.642-3.628.629-5.25-1.02-1.635-3.273-2.581-5.156-2.369-1.419.16-2.418 1.031-2.887 2.197-.088.115-.172.236-.247.368-.694 1.216-.524 2.661.172 3.803.048.434.203.872.487 1.283z"/><path d="m15.917 147.702c-.808-4.056-5.576-6.394-9.278-4.682-3.23 1.494-4.057 5.095-2.662 7.929.401 2.056 1.943 3.855 4.352 4.354 4.224.877 8.436-3.34 7.588-7.601z"/><path d="m20.81 158.929c-2.29-1.895-6.041-1.272-7.358 1.471-.345.718-.48 1.476-.443 2.21-.003.005-.006.009-.008.014-.648 1.373.054 2.962.938 4.059 1.812 2.25 5.332 2.799 7.371.513 2.044-2.293 1.871-6.305-.5-8.267z"/><path d="m40.521 179.405c.114.319.276.629.484.916 1.179 1.624 2.962 2.924 4.981 3.181 4.569.583 7.111-4.406 5.877-8.352-1.343-4.295-6.17-4.949-9.507-2.462-1.71 1.275-3.115 3.39-2.387 5.6.128.392.318.765.552 1.117z"/><path d="m50.729 193.585c1.495.223 3.021-.399 3.826-1.71.894-1.454.536-3.278-.872-4.249-.819-.564-1.976-.842-3.01-.676-.397-.149-.863-.14-1.343.126-1.318.73-1.944 2.263-1.667 3.72.285 1.503 1.592 2.568 3.066 2.789z"/><path d="m20.641 172.229c-2.265 1.989-2.609 5.371-.814 7.403.133.22.29.437.478.649 1.256 1.422 3.169 2.551 5.104 2.492 4.117-.126 6.435-4.908 4.856-8.452-1.654-3.71-6.582-4.764-9.624-2.092z"/><path d="m40.279 190.403c1.99-1.417 2.478-4.214.686-6.011-1.579-1.584-4.625-2.758-6.466-.937-.374.371-.623.825-.773 1.319-.887 1.564-.745 3.595.497 4.997 1.488 1.679 4.252 1.915 6.056.632z"/><path d="m46.617 199.127c-.281-4.662-5.1-7.783-9-4.442-.698.597-1.239 1.356-1.611 2.188-1.418.986-2.332 2.472-1.883 4.325.489 2.02 2.299 3.182 4.12 3.872 1.945.736 4.213.936 5.998-.305 1.762-1.226 2.5-3.57 2.376-5.638z"/><path d="m24.707 187.442c-1.353.627-2.249 2.03-2.037 3.535.213 1.507 1.454 2.755 3.01 2.803.332.01.672-.044 1.004-.145.923.087 1.877-.258 2.548-.984 1.132-1.227.993-3.259-.143-4.435-1.133-1.172-2.921-1.45-4.382-.774z"/><path d="m45.675 209.091c-1.474.31-2.375 1.38-2.342 2.812-.084.235-.128.496-.11.788.084 1.377 1.37 2.384 2.648 2.617 1.279.233 2.692-.134 3.571-1.132.974-1.107.977-2.703.087-3.859-.923-1.199-2.423-1.528-3.854-1.226z"/><path d="m115.872 129.706c.144.057.264.194.48.363-.19.168-.3.339-.435.361-.2.033-.31-.146-.336-.346-.024-.212.136-.437.291-.378zm6.394 2.683c.38.058.63.382.62.794-.014.434-.414.774-.839.717-.315-.043-.56-.362-.54-.699.03-.488.384-.87.759-.812zm-5.339 2.39c.779.916 1.784 1.638 2.935 2.033 5.685 1.957 10.8-3.828 9.3-9.291-.74-2.683-2.91-5.055-5.72-5.539-2.785-.479-5.66.955-7.445 3.049-1.94 2.275-2.565 5.262-.855 7.877.48.736 1.09 1.365 1.785 1.871z"/><path d="m75.434 141.062c.102-.018.228.094.343.15-.058.107-.115.214-.194.361-.155-.097-.262-.165-.37-.232.072-.099.134-.264.221-.279zm1.602-4.459c.036-.131.264-.328.348-.303.178.053.318.232.541.415-.188.18-.289.345-.43.396-.236.085-.534-.231-.459-.508zm-3.754 11.161c4.651-1.121 6.979-7.711 4.992-12.296-1.226-2.831-4.163-5.108-7.367-4.204-1.099.31-2.106.964-2.984 1.805-4.081 1.439-4.881 5.444-3.645 8.928.056-.088.136-.158.236-.196.196-.074.447-.054.659-.008.094.021.153.207.273.383-.167.168-.302.355-.483.471-.118.075-.251.115-.382.099.946 2.102 2.637 3.919 4.784 4.713 1.301.481 2.505.574 3.592.377-.005-.006-.011-.011-.016-.017.096-.052.191-.104.286-.155.015.031.036.066.055.1z"/><path d="m189.037 143.312c.15-.222.535-.253.735-.06.055.053.055.162.105.322-.13.077-.28.226-.425.228-.15.002-.31-.13-.44-.235-.04-.032-.02-.191.025-.255zm.395-3.786c.185-.068.37-.033.44.198.015.224-.1.358-.31.373-.2.014-.385-.076-.38-.297 0-.097.145-.234.25-.274zm2.025-2.813c.16.183.29.268.31.375.04.197-.065.377-.28.379-.09.002-.265-.162-.26-.242.01-.149.125-.291.23-.512zm1.75 5.837c.34-.032.625.223.645.576.015.423-.265.749-.645.748-.43-.002-.77-.292-.76-.651.01-.355.325-.631.76-.673zm.68-3.478c.145.002.29.151.4.213-.02.384-.23.48-.465.537-.19.047-.38-.115-.37-.303.015-.272.175-.451.435-.447zm.815-2.182c.07.092.11.209.165.318-.08.029-.16.06-.285.107-.035-.117-.085-.229-.095-.344-.005-.023.195-.101.215-.081zm.56 9.4c.155.168.3.27.355.408.025.055-.135.249-.235.273-.205.05-.37-.09-.385-.293-.005-.095.13-.201.265-.388zm.635 3.074c.305-.183.59-.398.865-.632.095-.104.2-.2.32-.288.205-.198.4-.41.585-.633-.065-.256-.38-.366-.465-.649.355-.629.945-.934 1.64-1.148.095-.184.18-.372.265-.562-.46-.167-.765-.469-.975-.923-.16-.338-.4-.644-.64-.938-.3-.372-.635-.371-.95-.023-.125.141-.195.351-.35.441-.23.14-.505.259-.77.288-.445.048-.835-.374-.755-.816.045-.272.15-.551.3-.786.48-.779 1.25-1.133 2.11-1.325.435-.097.86.171.97.628.075.321.05.666.13.985.1.41.195.846.41 1.198.175.285.465.517.76.705.635-1.618.96-3.371 1-4.905.035-1.497-.5-2.725-1.37-3.684-.115-.004-.24-.007-.38-.007.035-.004-.15.034-.335.038-.52.01-.77-.306-.675-.812.02-.109.055-.213.1-.307-1.02-.666-2.235-1.106-3.47-1.313-2.915-.489-6.265-.052-8.34 2.253-2.145 2.38-2.12 6.011-.425 8.605 1.545 4.031 6.255 7.11 10.445 4.61z"/><path d="m44.429 39.208c.773-.092 1.698.592 1.767 1.306.056.574-.57 1.36-1.139 1.432-.794.099-1.542-.472-1.615-1.232-.07-.723.398-1.436.987-1.506zm-6.96 4.422c1.138.958 2.543 1.474 4.177 1.662 2.326.267 4.578-.208 6.166-2.028 1.354-1.552 1.97-3.705 1.716-5.738-.606-4.842-5.565-7.363-9.748-4.724-1.945 1.227-4.099 3.314-4.626 5.625-.473 2.07.581 4.089 2.315 5.203z"/><path d="m79.962 204.661c-.03.2-.164.454-.33.551-.269.158-.602.209-.97.323-.125-.151-.3-.268-.332-.416-.158-.715.505-1.313 1.177-1.08.289.1.501.314.455.622zm-2.337 12.556c-.212-.033-.405-.288-.381-.503.053-.463.384-.729.972-.686.086.104.318.255.335.428.047.486-.421.838-.926.761zm-6.326-8.096c-.043.086-.201.114-.309.168-.037-.079-.123-.178-.1-.232.043-.105.147-.185.286-.344.064.195.16.334.123.408zm4.553-6.044c-2.797.371-5.023 2.229-6.692 4.404-1.708 2.225-2.035 4.879.427 6.688.106.077.216.152.326.226.057.085.113.171.177.254 1.621 2.131 4.619 3.387 7.268 3.071 5.276-.629 7.558-7.318 5.024-11.639-1.356-2.31-3.925-3.349-6.53-3.004z"/></svg>