<svg viewBox="0 0 548 138" xmlns="http://www.w3.org/2000/svg"><g fill="#2d2d2e"><path d="m51.2547.0175781h19.2626v102.1424219h-19.2626v-7.6037c-3.675 4.9423-10.8985 9.1247-19.6427 9.1247-17.3617 0-31.428406-14.3206-31.428406-33.3297s14.066706-33.3293 31.428406-33.3293c8.7442 0 15.9677 4.182 19.6427 9.1244zm-31.9353 70.3337219c0 9.5046 6.97 16.728 16.2211 16.728 9.3779 0 16.3479-7.2234 16.3479-16.728 0-9.5045-6.97-16.728-16.3479-16.728-9.2511 0-16.2211 7.2235-16.2211 16.728z"/><path d="m108.136 87.9664c7.477 0 11.659-3.5483 15.334-9.2511l13.56 9.3778c-6.083 10.0115-16.601 15.5879-28.894 15.5879-17.9951 0-33.3291-14.1938-33.3291-33.3297 0-19.2626 15.334-33.3293 32.8221-33.3293 20.784 0 33.076 16.4746 31.809 38.5251h-46.7626c1.9009 7.8571 8.1106 12.4193 15.4606 12.4193zm-.38-35.3569c-6.463 0-12.1658 4.0552-14.4469 10.8985h27.8799c-.887-5.4493-5.196-10.8985-13.433-10.8985z"/><path d="m167.252 103.681c-11.786 0-23.318-6.4635-26.106-17.7422l16.348-4.9424c1.52 5.3226 5.449 8.2373 10.011 8.2373 3.802 0 6.97-2.0276 6.97-5.9562 0-9.8847-30.034-2.2811-30.034-25.5989 0-11.0253 9.504-20.6566 23.571-20.6566 11.659 0 20.53 6.3364 23.444 16.2211l-16.601 4.182c-1.014-3.9285-3.421-6.0829-7.097-6.0829-3.168 0-5.702 2.1544-5.702 5.1958 0 9.3778 30.288 1.9009 30.288 25.7257 0 13.0529-12.293 21.4173-25.092 21.4173z"/><path d="m208.145 25.4898c-6.336 0-11.532-5.0691-11.532-11.4055 0-6.33635 5.196-11.40544 11.532-11.40544 6.21 0 11.405 5.06909 11.405 11.40544 0 6.3364-5.195 11.4055-11.405 11.4055zm-9.631 13.0529h19.262v63.6173h-19.262z"/><path d="m333.848 65.6624c0-6.5898-3.802-11.4055-10.646-11.4055-7.096 0-11.405 5.4493-11.405 12.9262v34.9769h-19.263v-63.6173h19.263v7.3502c3.802-4.9424 10.138-8.8709 18.502-8.8709 14.067 0 22.811 9.5046 22.811 23.3178v41.8202h-19.262z"/><path d="m387.931 55.144h-27.499v-16.6013h57.534l-30.668 47.0159h30.034v16.6014h-60.069z"/><path d="m451.048 87.9664c7.476 0 11.659-3.5483 15.334-9.2511l13.559 9.3778c-6.082 10.0115-16.601 15.5879-28.893 15.5879-17.996 0-33.33-14.1938-33.33-33.3297 0-19.2626 15.334-33.3293 32.823-33.3293 20.783 0 33.076 16.4746 31.808 38.5251h-46.762c1.901 7.8571 8.11 12.4193 15.461 12.4193zm-.381-35.3569c-6.463 0-12.165 4.0552-14.447 10.8985h27.88c-.887-5.4493-5.195-10.8985-13.433-10.8985z"/><path d="m528.552 65.6624c0-6.5898-3.801-11.4055-10.645-11.4055-7.096 0-11.405 5.4493-11.405 12.9262v34.9769h-19.263v-63.6173h19.263v7.3502c3.802-4.9424 10.138-8.8709 18.502-8.8709 14.067 0 22.811 9.5046 22.811 23.3178v41.8202h-19.263z"/><path d="m214.971 108.159h18.375c1.267 8.618 8.744 13.56 17.995 13.56 10.392 0 17.615-6.97 17.869-16.221h-33.076l-9.831-14.0666 38.345-.1267h23.571c2.788 26.3593-12.039 46.0023-37.511 46.0023-18.376 0-34.597-11.279-35.737-29.148z"/><path clip-rule="evenodd" d="m250.374 91.7284c15.311 0 27.722-11.8573 27.722-26.484s-12.411-26.4841-27.722-26.4841c-15.31 0-27.721 11.8574-27.721 26.4841s12.411 26.484 27.721 26.484zm-.176-15.1346c6.083 0 11.014-4.959 11.014-11.0763 0-6.1172-4.931-11.0762-11.014-11.0762s-11.015 4.959-11.015 11.0762c0 6.1173 4.932 11.0763 11.015 11.0763z" fill-rule="evenodd"/><path d="m255.156 25.792c0 9.2225 7.476 16.6988 16.699 16.6988 9.222 0 16.698-7.4763 16.698-16.6988z"/></g></svg>