<svg viewBox="0 0 1044 100" version="1.1" xmlns="http://www.w3.org/2000/svg" fill="currentColor">
    <g>
        <path
            d="M0.658,97.478l19.75,0l0,-39.5l33.25,0l0,-16.75l-33.25,0l0,-21.25l34.125,0l0,-16.75l-53.875,0l0,94.25Z" />
        <path
            d="M84.158,61.478l1.75,0l26.875,36l24,0l-29.75,-38.375c12.5,-4.125 20.75,-13.5 20.75,-26.75c0,-18.5 -14.875,-29.125 -35.625,-29.125l-27.875,0l0,94.25l19.875,0l0,-36Zm0,-41.75l7.625,0c9.125,0 15.75,4.5 15.75,13.125c0,8.875 -6.625,13.375 -15.75,13.375l-7.625,0l0,-26.5Z" />
        <path
            d="M213.908,97.478l21,0l-40.125,-94.25l-17,0l-40.125,94.25l20.5,0l8.125,-19.75l39.5,0l8.125,19.75Zm-27.875,-67.75l12.875,31.375l-25.75,0l12.875,-31.375Z" />
        <path
            d="M238.033,3.228l0,94.25l19.375,0l0,-61l50.25,61l15,0l0,-94.25l-19.375,0l0,60.375l-49.375,-60.375l-15.875,0Z" />
        <path
            d="M354.033,3.228l-20.125,0l0,94.25l20.125,0l0,-32.5l6.75,-7.625l30.75,40.125l24.375,0l-41.375,-54.25l36,-40l-24,0l-32.5,37.5l0,-37.5Z" />
        <path
            d="M510.908,68.228c0,-34 -44.625,-22.875 -44.625,-39.375c0,-6.25 4.75,-10.125 10.875,-10.125c6.625,0 10.75,4.625 12.5,10l18.5,-6.875c-4.125,-12.25 -15.5,-20.125 -30.25,-20.125c-18.75,0 -31.25,13.125 -31.25,28.5c0,33 44.25,21 44.25,39c0,7.75 -6,12.625 -14,12.625c-8.5,0 -14.75,-5.875 -16.875,-14.875l-18.75,6c3.5,15.75 17.5,26 35,26c19.125,0 34.625,-13 34.625,-30.75Z" />
        <path d="M581.658,19.978l0,-16.75l-69.625,0l0,16.75l24.75,0l0,77.5l20.125,0l0,-77.5l24.75,0Z" />
        <path
            d="M642.283,97.478l21,0l-40.125,-94.25l-17,0l-40.125,94.25l20.5,0l8.125,-19.75l39.5,0l8.125,19.75Zm-27.875,-67.75l12.875,31.375l-25.75,0l12.875,-31.375Z" />
        <path d="M668.908,97.478l55.125,0l0,-16.75l-35,0l0,-77.5l-20.125,0l0,94.25Z" />
        <path d="M732.533,97.478l55.125,0l0,-16.75l-35,0l0,-77.5l-20.125,0l0,94.25Z" />
        <path
            d="M785.533,50.353c0,26.75 21.75,48.625 48.625,48.625c27.125,0 48.75,-21.875 48.75,-48.625c0,-26.75 -21.625,-48.625 -48.75,-48.625c-26.875,0 -48.625,21.875 -48.625,48.625Zm77.125,0c0,17.25 -12.625,29.875 -28.5,29.875c-15.75,0 -28.5,-12.625 -28.5,-29.875c0,-17.25 12.75,-29.875 28.5,-29.875c15.875,0 28.5,12.625 28.5,29.875Z" />
        <path
            d="M891.408,3.228l0,94.25l19.375,0l0,-61l50.25,61l15,0l0,-94.25l-19.375,0l0,60.375l-49.375,-60.375l-15.875,0Z" />
        <path
            d="M987.283,97.478l56,0l0,-16.75l-36.25,0l0,-23.5l35.25,0l0,-16.75l-35.25,0l0,-20.5l36.125,0l0,-16.75l-55.875,0l0,94.25Z" />
    </g>
</svg>